<svg width="19" height="18" viewBox="0 0 19 18" fill="none" xmlns="http://www.w3.org/2000/svg">
<path fill-rule="evenodd" clip-rule="evenodd" d="M9.57598 12.2712C9.19146 12.2712 8.87939 12.006 8.87939 11.6793V5.89722C8.87939 5.57051 9.19146 5.30536 9.57598 5.30536C9.96049 5.30536 10.2726 5.57051 10.2726 5.89722V11.6793C10.2726 12.006 9.96049 12.2712 9.57598 12.2712Z" fill="#635FF7"/>
<path fill-rule="evenodd" clip-rule="evenodd" d="M12.4672 9.48484H6.68424C6.35696 9.48484 6.09277 9.17277 6.09277 8.78826C6.09277 8.40374 6.35696 8.09167 6.68424 8.09167H12.4672C12.7936 8.09167 13.0586 8.40374 13.0586 8.78826C13.0586 9.17277 12.7936 9.48484 12.4672 9.48484Z" fill="#635FF7"/>
<path fill-rule="evenodd" clip-rule="evenodd" d="M5.49714 1.39021C3.12915 1.39021 1.59833 2.95084 1.59833 5.36789V12.6322C1.59833 15.0492 3.12915 16.6099 5.49714 16.6099H13.5032C15.872 16.6099 17.402 15.0492 17.402 12.6322V5.36789C17.402 2.95084 15.872 1.39021 13.5032 1.39021H5.49714ZM13.5031 17.8439H5.49709C2.39871 17.8439 0.316895 15.7493 0.316895 12.6321V5.36784C0.316895 2.25068 2.39871 0.156128 5.49709 0.156128H13.5031C16.6015 0.156128 18.6833 2.25068 18.6833 5.36784V12.6321C18.6833 15.7493 16.6015 17.8439 13.5031 17.8439Z" fill="#635FF7"/>
</svg>
