<svg width="14" height="14" viewBox="0 0 14 14" fill="none" xmlns="http://www.w3.org/2000/svg">
<path fill-rule="evenodd" clip-rule="evenodd" d="M6.99967 1.33325C3.87501 1.33325 1.33301 3.87525 1.33301 6.99992C1.33301 10.1246 3.87501 12.6666 6.99967 12.6666C10.1243 12.6666 12.6663 10.1246 12.6663 6.99992C12.6663 3.87525 10.1243 1.33325 6.99967 1.33325M6.99967 13.6666C3.32367 13.6666 0.333008 10.6759 0.333008 6.99992C0.333008 3.32392 3.32367 0.333252 6.99967 0.333252C10.6757 0.333252 13.6663 3.32392 13.6663 6.99992C13.6663 10.6759 10.6757 13.6666 6.99967 13.6666" fill="#635FF7"/>
<path fill-rule="evenodd" clip-rule="evenodd" d="M6.99938 8.86259V8.86259C6.86672 8.86259 6.73872 8.80992 6.64538 8.71525L4.33138 6.39125C4.13605 6.19525 4.13738 5.87859 4.33272 5.68392C4.52872 5.48925 4.84538 5.48925 5.04005 5.68525L6.99938 7.65459L8.95938 5.68525C9.15405 5.48925 9.47072 5.48925 9.66672 5.68392C9.86205 5.87859 9.86272 6.19525 9.66805 6.39125L7.35338 8.71525C7.26005 8.80992 7.13205 8.86259 6.99938 8.86259" fill="#635FF7"/>
</svg>
