<svg width="11" height="15" viewBox="0 0 11 15" fill="none" xmlns="http://www.w3.org/2000/svg">
<path d="M4.79354 0.793762C5.18416 0.403137 5.81854 0.403137 6.20916 0.793762L10.2092 4.79376C10.4967 5.08126 10.581 5.50939 10.4248 5.88439C10.2685 6.25939 9.90604 6.50314 9.49979 6.50314L1.49979 6.50001C1.09666 6.50001 0.731037 6.25626 0.574787 5.88126C0.418537 5.50626 0.506037 5.07814 0.790412 4.79064L4.79041 0.790637L4.79354 0.793762ZM4.79354 14.2094L0.793537 10.2094C0.506037 9.92189 0.421662 9.49376 0.577912 9.11876C0.734162 8.74376 1.09666 8.50001 1.50291 8.50001H9.50291C9.90604 8.50001 10.2717 8.74376 10.4279 9.11876C10.5842 9.49376 10.4967 9.92189 10.2123 10.2094L6.21229 14.2094C5.82166 14.6 5.18729 14.6 4.79666 14.2094H4.79354Z" fill="#635FF7"/>
</svg>
