<svg width="16" height="16" viewBox="0 0 16 16" fill="none" xmlns="http://www.w3.org/2000/svg">
<path fill-rule="evenodd" clip-rule="evenodd" d="M0 8C0 3.58196 3.5817 0 8 0C12.4178 0 16 3.58223 16 8C16 12.4178 12.4178 16 8 16C3.5817 16 0 12.418 0 8ZM14.8 8C14.8 4.24497 11.755 1.2 8 1.2C4.24446 1.2 1.2 4.24468 1.2 8C1.2 11.7553 4.24446 14.8 8 14.8C11.755 14.8 14.8 11.755 14.8 8Z" fill="#635FF7"/>
<path fill-rule="evenodd" clip-rule="evenodd" d="M6.43749 5.5918C6.20262 5.41749 5.86928 5.43682 5.65625 5.64981C5.42191 5.8841 5.42187 6.264 5.65616 6.49834L7.15052 7.99301L5.65822 9.48531L5.60012 9.55261C5.42584 9.7875 5.44521 10.1208 5.65822 10.3338C5.89253 10.5682 6.27243 10.5682 6.50675 10.3338L7.99896 8.84163L9.49296 10.3359L9.56025 10.394C9.79512 10.5684 10.1285 10.549 10.3415 10.336C10.5758 10.1017 10.5759 9.72184 10.3416 9.4875L8.84749 7.9931L10.3403 6.50024L10.3984 6.43295C10.5727 6.19806 10.5534 5.86473 10.3403 5.65171C10.106 5.4174 9.72613 5.4174 9.49182 5.65171L7.99905 7.14448L6.50478 5.6499L6.43749 5.5918Z" fill="#635FF7"/>
</svg>
