<svg width="8" height="8" viewBox="0 0 8 8" fill="none" xmlns="http://www.w3.org/2000/svg">
<path fill-rule="evenodd" clip-rule="evenodd" d="M2.04735 0.989872C1.75376 0.771987 1.33709 0.796149 1.0708 1.06239C0.777876 1.35525 0.777826 1.83012 1.07069 2.12305L2.93852 3.99127L1.07324 5.85654L1.00063 5.94066C0.782772 6.23427 0.806978 6.65094 1.07324 6.9172C1.36614 7.2101 1.84101 7.2101 2.1339 6.9172L3.99907 5.05204L5.86669 6.92005L5.9508 6.99268C6.24439 7.21056 6.66105 7.1864 6.92735 6.92016C7.22027 6.6273 7.22032 6.15242 6.92746 5.8595L5.05973 3.99138L6.9259 2.1252L6.99852 2.04109C7.21638 1.74747 7.19217 1.33081 6.9259 1.06454C6.63301 0.77165 6.15814 0.77165 5.86524 1.06454L3.99918 2.93061L2.13146 1.0625L2.04735 0.989872Z" fill="#929BAA"/>
</svg>
