<svg width="16" height="13" viewBox="0 0 16 13" fill="none" xmlns="http://www.w3.org/2000/svg">
<path d="M1.52381 2.88889V11.5556H12.9524V13H1.52381C0 13 0 11.5556 0 11.5556V2.88889H1.52381ZM14.4762 1.44444V8.66667H4.57143V1.44444H14.4762ZM14.7048 0H4.34286C3.62667 0 3.04762 0.505556 3.04762 1.11944V8.99167C3.04762 9.61278 3.62667 10.1111 4.34286 10.1111H14.7048C15.421 10.1111 16 9.61278 16 8.99167V1.11944C16 0.505556 15.421 0 14.7048 0ZM5.33333 2.16667H7.61905V5.77778H5.33333V2.16667ZM13.7143 7.94444H5.33333V6.5H13.7143V7.94444ZM13.7143 3.61111H9.14286V2.16667H13.7143V3.61111ZM13.7143 5.77778H9.14286V4.33333H13.7143V5.77778Z" fill="#929BAA"/>
</svg>
