<svg width="14" height="14" viewBox="0 0 14 14" fill="none" xmlns="http://www.w3.org/2000/svg">
<path fill-rule="evenodd" clip-rule="evenodd" d="M7.00016 1.33325C3.8755 1.33325 1.3335 3.87525 1.3335 6.99992C1.3335 10.1246 3.8755 12.6666 7.00016 12.6666C10.1248 12.6666 12.6668 10.1246 12.6668 6.99992C12.6668 3.87525 10.1248 1.33325 7.00016 1.33325M7.00016 13.6666C3.32416 13.6666 0.333496 10.6759 0.333496 6.99992C0.333496 3.32392 3.32416 0.333252 7.00016 0.333252C10.6762 0.333252 13.6668 3.32392 13.6668 6.99992C13.6668 10.6759 10.6762 13.6666 7.00016 13.6666" fill="#929BAA"/>
<path fill-rule="evenodd" clip-rule="evenodd" d="M7.00036 8.86259V8.86259C6.86769 8.86259 6.73969 8.80992 6.64636 8.71525L4.33236 6.39125C4.13703 6.19525 4.13836 5.87859 4.33369 5.68392C4.52969 5.48925 4.84636 5.48925 5.04103 5.68525L7.00036 7.65459L8.96036 5.68525C9.15503 5.48925 9.47169 5.48925 9.66769 5.68392C9.86303 5.87859 9.86369 6.19525 9.66903 6.39125L7.35436 8.71525C7.26103 8.80992 7.13303 8.86259 7.00036 8.86259" fill="#929BAA"/>
</svg>
