<svg width="16" height="16" viewBox="0 0 16 16" fill="none" xmlns="http://www.w3.org/2000/svg">
<path fill-rule="evenodd" clip-rule="evenodd" d="M15.3848 16.0001H9.43373C9.09405 16.0001 8.81836 15.7163 8.81836 15.3665C8.81836 15.0168 9.09405 14.7329 9.43373 14.7329H15.3848C15.7244 14.7329 16.0001 15.0168 16.0001 15.3665C16.0001 15.7163 15.7244 16.0001 15.3848 16.0001" fill="#635FF7"/>
<mask id="mask0_33553_1971" style="mask-type:luminance" maskUnits="userSpaceOnUse" x="0" y="0" width="15" height="16">
<path fill-rule="evenodd" clip-rule="evenodd" d="M0 0H14.0965V16H0V0Z" fill="white"/>
</mask>
<g mask="url(#mask0_33553_1971)">
<path fill-rule="evenodd" clip-rule="evenodd" d="M9.1159 1.70368L1.39096 11.6511C1.25066 11.8319 1.19897 12.0651 1.25066 12.2889L1.80941 14.7262L4.30289 14.6941C4.54001 14.6915 4.75908 14.5826 4.90431 14.3967C7.54384 10.9964 12.5759 4.51346 12.7187 4.32339C12.8532 4.09867 12.9058 3.78103 12.8352 3.47521C12.763 3.16179 12.5735 2.89568 12.3002 2.72588C12.242 2.68449 10.8594 1.5795 10.8168 1.54486C10.2966 1.11571 9.53763 1.19005 9.1159 1.70368V1.70368ZM1.32368 16.0001C1.03897 16.0001 0.79118 15.799 0.72472 15.5126L0.0527366 12.5804C-0.0859267 11.973 0.0519161 11.3461 0.430163 10.8595L8.15921 0.906161C8.16249 0.902782 8.16495 0.898558 8.16823 0.895179C9.0158 -0.148141 10.5485 -0.301893 11.5823 0.552193C11.6233 0.58514 12.996 1.68337 12.996 1.68337C13.4949 1.98919 13.8846 2.53577 14.0323 3.18288C14.1792 3.82323 14.0725 4.48386 13.7304 5.04227C13.7049 5.08366 13.6828 5.11915 5.86511 15.1891C5.4885 15.6723 4.924 15.9536 4.31766 15.9612L1.33189 16.0001H1.32368Z" fill="#635FF7"/>
</g>
<path fill-rule="evenodd" clip-rule="evenodd" d="M11.6697 7.33683C11.5384 7.33683 11.4071 7.29374 11.2947 7.20588L6.82141 3.66789C6.55228 3.455 6.50141 3.05795 6.70818 2.77917C6.91576 2.50207 7.30139 2.45054 7.57134 2.66343L12.0455 6.20058C12.3146 6.41347 12.3655 6.81137 12.1579 7.0893C12.0373 7.2515 11.8543 7.33683 11.6697 7.33683" fill="#635FF7"/>
</svg>
