<svg width="25" height="24" viewBox="0 0 25 24" fill="none" xmlns="http://www.w3.org/2000/svg">
<path fill-rule="evenodd" clip-rule="evenodd" d="M10.5803 18.5928H4.2793C3.8653 18.5928 3.5293 18.2568 3.5293 17.8428C3.5293 17.4288 3.8653 17.0928 4.2793 17.0928H10.5803C10.9943 17.0928 11.3303 17.4288 11.3303 17.8428C11.3303 18.2568 10.9943 18.5928 10.5803 18.5928" fill="#635FF7"/>
<path fill-rule="evenodd" clip-rule="evenodd" d="M19.6911 8.90039H13.3911C12.9771 8.90039 12.6411 8.56439 12.6411 8.15039C12.6411 7.73639 12.9771 7.40039 13.3911 7.40039H19.6911C20.1051 7.40039 20.4411 7.73639 20.4411 8.15039C20.4411 8.56439 20.1051 8.90039 19.6911 8.90039" fill="#635FF7"/>
<mask id="mask0_33553_1944" style="mask-type:luminance" maskUnits="userSpaceOnUse" x="3" y="5" width="7" height="7">
<path fill-rule="evenodd" clip-rule="evenodd" d="M3.5 5.00049H9.7258V11.1921H3.5V5.00049Z" fill="white"/>
</mask>
<g mask="url(#mask0_33553_1944)">
<path fill-rule="evenodd" clip-rule="evenodd" d="M6.613 6.5C5.724 6.5 5 7.216 5 8.097C5 8.977 5.724 9.692 6.613 9.692C7.503 9.692 8.226 8.977 8.226 8.097C8.226 7.216 7.503 6.5 6.613 6.5M6.613 11.192C4.897 11.192 3.5 9.804 3.5 8.097C3.5 6.39 4.897 5 6.613 5C8.33 5 9.726 6.39 9.726 8.097C9.726 9.804 8.33 11.192 6.613 11.192" fill="#635FF7"/>
</g>
<path fill-rule="evenodd" clip-rule="evenodd" d="M17.8879 16.208C16.9979 16.208 16.2739 16.924 16.2739 17.804C16.2739 18.685 16.9979 19.4 17.8879 19.4C18.7769 19.4 19.4999 18.685 19.4999 17.804C19.4999 16.924 18.7769 16.208 17.8879 16.208M17.8879 20.9C16.1709 20.9 14.7739 19.511 14.7739 17.804C14.7739 16.097 16.1709 14.708 17.8879 14.708C19.6039 14.708 20.9999 16.097 20.9999 17.804C20.9999 19.511 19.6039 20.9 17.8879 20.9" fill="#635FF7"/>
</svg>
