<svg width="14" height="15" viewBox="0 0 14 15" fill="none" xmlns="http://www.w3.org/2000/svg">
<mask id="mask0_33589_1451" style="mask-type:luminance" maskUnits="userSpaceOnUse" x="0" y="0" width="14" height="14">
<path fill-rule="evenodd" clip-rule="evenodd" d="M0.333252 0.333374H13.3178V13.318H0.333252V0.333374Z" fill="white"/>
</mask>
<g mask="url(#mask0_33589_1451)">
<path fill-rule="evenodd" clip-rule="evenodd" d="M6.82568 1.33337C3.79701 1.33337 1.33301 3.79671 1.33301 6.82537C1.33301 9.85404 3.79701 12.318 6.82568 12.318C9.85367 12.318 12.3177 9.85404 12.3177 6.82537C12.3177 3.79671 9.85367 1.33337 6.82568 1.33337ZM6.82568 13.318C3.24567 13.318 0.333008 10.4054 0.333008 6.82537C0.333008 3.24537 3.24567 0.333374 6.82568 0.333374C10.4057 0.333374 13.3177 3.24537 13.3177 6.82537C13.3177 10.4054 10.4057 13.318 6.82568 13.318Z" fill="#929BAA"/>
</g>
<mask id="mask1_33589_1451" style="mask-type:luminance" maskUnits="userSpaceOnUse" x="10" y="10" width="4" height="5">
<path fill-rule="evenodd" clip-rule="evenodd" d="M10.4932 10.8047H13.8425V14.1479H10.4932V10.8047Z" fill="white"/>
</mask>
<g mask="url(#mask1_33589_1451)">
<path fill-rule="evenodd" clip-rule="evenodd" d="M13.3427 14.1479C13.2153 14.1479 13.0873 14.0992 12.9893 14.0019L10.64 11.6592C10.4447 11.4639 10.444 11.1472 10.6393 10.9519C10.834 10.7552 11.1507 10.7565 11.3467 10.9505L13.696 13.2939C13.8913 13.4892 13.892 13.8052 13.6967 14.0005C13.5993 14.0992 13.4707 14.1479 13.3427 14.1479Z" fill="#929BAA"/>
</g>
</svg>
