<svg width="15" height="16" viewBox="0 0 15 16" fill="none" xmlns="http://www.w3.org/2000/svg">
<mask id="mask0_33553_1929" style="mask-type:luminance" maskUnits="userSpaceOnUse" x="0" y="0" width="15" height="16">
<path fill-rule="evenodd" clip-rule="evenodd" d="M0 0H14.8911V16H0V0Z" fill="white"/>
</mask>
<g mask="url(#mask0_33553_1929)">
<path fill-rule="evenodd" clip-rule="evenodd" d="M4.01711 11.9222C4.19394 11.9222 4.37076 11.9446 4.54373 11.9909C5.06571 12.1315 5.51897 12.4805 5.78768 12.9492C5.96219 13.2434 6.05871 13.587 6.0618 13.9376C6.0618 14.4395 6.46487 14.8418 6.9606 14.8418H7.92812C8.42153 14.8418 8.8246 14.4418 8.82692 13.9484C8.82383 13.4032 9.03695 12.8851 9.42689 12.4951C9.81143 12.1106 10.3489 11.8797 10.8863 11.8952C11.2384 11.9037 11.5774 11.9986 11.8762 12.1685C12.3063 12.4148 12.8553 12.2681 13.1039 11.8434L13.6166 10.9887C13.7309 10.7918 13.7641 10.5447 13.7031 10.3169C13.6429 10.0891 13.4916 9.89141 13.2877 9.77482C12.8105 9.49993 12.47 9.05671 12.3287 8.52546C12.1889 8.00425 12.2654 7.43516 12.5379 6.96646C12.7155 6.65759 12.9758 6.39737 13.2877 6.21823C13.7062 5.97346 13.8529 5.42599 13.6097 4.99976C13.5997 4.98277 13.5904 4.96501 13.5827 4.94648L13.1302 4.16196C12.8839 3.73341 12.3356 3.58593 11.9055 3.8307C11.4407 4.10559 10.8878 4.18435 10.3566 4.04459C9.8261 3.90715 9.38133 3.57126 9.10413 3.09715C8.92653 2.80064 8.83001 2.45548 8.82692 2.10415C8.83387 1.84007 8.74121 1.60301 8.57288 1.42927C8.40532 1.25631 8.16981 1.15825 7.92812 1.15825H6.9606C6.72123 1.15825 6.4973 1.25168 6.3282 1.42001C6.15987 1.58911 6.06798 1.81381 6.06952 2.05318C6.05331 3.18209 5.13057 4.09092 4.01325 4.09092C3.65497 4.08706 3.30981 3.99054 3.01021 3.8114C2.58938 3.57203 2.0396 3.71951 1.79328 4.14806L1.27053 5.00748C1.03116 5.4229 1.17787 5.97191 1.6041 6.21978C2.2365 6.58578 2.63108 7.26838 2.63108 8.00039C2.63108 8.7324 2.2365 9.41422 1.60256 9.78099C1.17864 10.0265 1.03193 10.5725 1.27748 10.9972L1.76471 11.8373C1.88517 12.0542 2.08207 12.211 2.30986 12.2751C2.53688 12.3384 2.78706 12.3114 2.99554 12.1956C3.30209 12.0156 3.65883 11.9222 4.01711 11.9222M7.92805 16H6.96053C5.82622 16 4.90348 15.078 4.90348 13.9437C4.90194 13.804 4.86179 13.6588 4.78689 13.5329C4.66566 13.3214 4.46953 13.17 4.24329 13.1098C4.01859 13.0496 3.77227 13.0828 3.56996 13.2001C3.08504 13.4704 2.51441 13.536 1.99243 13.3893C1.47122 13.2418 1.02105 12.8835 0.756967 12.4087L0.274365 11.577C-0.290087 10.5979 0.0458045 9.34318 1.02336 8.77795C1.30057 8.61812 1.47276 8.32006 1.47276 8.00039C1.47276 7.68071 1.30057 7.38188 1.02336 7.22205C0.0450324 6.65373 -0.290087 5.39588 0.273593 4.41678L0.79712 3.55736C1.35385 2.58906 2.61248 2.24777 3.5939 2.81145C3.72748 2.89098 3.87265 2.93113 4.02013 2.93268C4.50119 2.93268 4.90348 2.53578 4.91121 2.04778C4.90812 1.50958 5.12046 0.993002 5.50732 0.60306C5.89571 0.213889 6.41152 0 6.96053 0H7.92805C8.48092 0 9.01834 0.227016 9.40365 0.621592C9.78819 1.01848 10.0005 1.56286 9.98432 2.11496C9.98586 2.23927 10.0268 2.3829 10.1009 2.50876C10.2237 2.71724 10.4175 2.86395 10.6476 2.92418C10.8777 2.98132 11.1186 2.95044 11.3233 2.82921C12.3116 2.26476 13.5695 2.60296 14.1339 3.58361L14.615 4.41678C14.6273 4.43917 14.6381 4.46079 14.6474 4.48318C15.1586 5.44916 14.8173 6.66532 13.8675 7.2205C13.7293 7.30003 13.6173 7.41123 13.5401 7.54558C13.4204 7.75329 13.3872 8.00039 13.4475 8.2274C13.5092 8.45905 13.6567 8.65132 13.8644 8.77023C14.3331 9.03972 14.6829 9.49375 14.8227 10.018C14.9625 10.5416 14.886 11.1099 14.6134 11.5786L14.1007 12.4326C13.5363 13.4024 12.2784 13.7383 11.3001 13.1731C11.1696 13.0982 11.019 13.0573 10.8692 13.0534H10.8646C10.6414 13.0534 10.4121 13.1484 10.2453 13.3144C10.0762 13.4835 9.98355 13.709 9.98509 13.9484C9.97969 15.0827 9.05695 16 7.92805 16" fill="white"/>
</g>
<path fill-rule="evenodd" clip-rule="evenodd" d="M7.44751 6.54341C6.64446 6.54341 5.99121 7.19743 5.99121 8.00048C5.99121 8.80353 6.64446 9.45601 7.44751 9.45601C8.25056 9.45601 8.90382 8.80353 8.90382 8.00048C8.90382 7.19743 8.25056 6.54341 7.44751 6.54341M7.44755 10.6143C6.00592 10.6143 4.83301 9.4422 4.83301 8.00057C4.83301 6.55894 6.00592 5.38525 7.44755 5.38525C8.88918 5.38525 10.0621 6.55894 10.0621 8.00057C10.0621 9.4422 8.88918 10.6143 7.44755 10.6143" fill="white"/>
</svg>
