<svg width="12" height="12" viewBox="0 0 12 12" fill="none" xmlns="http://www.w3.org/2000/svg">
<path fill-rule="evenodd" clip-rule="evenodd" d="M3.47109 1.04175C1.99525 1.04175 1.0415 2.05266 1.0415 3.61775V8.38241C1.0415 9.9475 1.99525 10.9584 3.47109 10.9584H8.52742C10.0038 10.9584 10.9582 9.9475 10.9582 8.38241V3.61775C10.9582 2.05266 10.0038 1.04175 8.528 1.04175H3.47109ZM8.52742 11.8334H3.47109C1.49417 11.8334 0.166504 10.4462 0.166504 8.38241V3.61775C0.166504 1.55391 1.49417 0.166748 3.47109 0.166748H8.528C10.5049 0.166748 11.8332 1.55391 11.8332 3.61775V8.38241C11.8332 10.4462 10.5049 11.8334 8.52742 11.8334Z" fill="#635FF7"/>
<path fill-rule="evenodd" clip-rule="evenodd" d="M5.30754 7.82182C5.19612 7.82182 5.08354 7.77924 4.99837 7.69349L3.61354 6.30924C3.44262 6.13832 3.44262 5.86182 3.61354 5.6909C3.78446 5.51999 4.06096 5.51999 4.23187 5.6909L5.30754 6.7654L7.76687 4.30665C7.93779 4.13574 8.21429 4.13574 8.38521 4.30665C8.55612 4.47757 8.55612 4.75407 8.38521 4.92499L5.61671 7.69349C5.53154 7.77924 5.41954 7.82182 5.30754 7.82182Z" fill="#635FF7"/>
</svg>
